<svg xmlns="http://www.w3.org/2000/svg" width="71.578" height="48.803" viewBox="0 0 71.578 48.803">
  <g id="Group_644" data-name="Group 644" transform="translate(-276.425 -234.207)">
    <path id="Path_8443" data-name="Path 8443" d="M328.034,269.255a12.2,12.2,0,1,0-13.459,0,19.536,19.536,0,0,0-12.792,18.3h3.253a16.268,16.268,0,0,1,32.536,0h3.254A19.537,19.537,0,0,0,328.034,269.255Zm-15.676-10.167a8.947,8.947,0,1,1,8.947,8.947A8.958,8.958,0,0,1,312.358,259.088Z" transform="translate(-9.091 -4.546)" fill="#50625d"/>
    <path id="Path_8444" data-name="Path 8444" d="M358.437,256.576a12.189,12.189,0,1,0-17.224-16.359,15.5,15.5,0,0,1,2.876,1.524,9.005,9.005,0,0,1,2.184-2.424,8.931,8.931,0,1,1,5.435,16.038c-.288,0-.572-.017-.853-.044a15.361,15.361,0,0,1-.548,3.4c.465-.04.925-.1,1.4-.1a16.367,16.367,0,0,1,16.268,16.268h3.253A19.536,19.536,0,0,0,358.437,256.576Z" transform="translate(-23.226)" fill="#c1ccb7"/>
    <path id="Path_8445" data-name="Path 8445" d="M295.946,258.609c.476,0,.935.06,1.4.1a15.363,15.363,0,0,1-.548-3.4c-.281.027-.565.044-.853.044a8.942,8.942,0,1,1,7.619-13.615,15.52,15.52,0,0,1,2.876-1.524,12.191,12.191,0,1,0-17.224,16.359,19.537,19.537,0,0,0-12.792,18.3h3.254a16.367,16.367,0,0,1,16.267-16.268Z" fill="#c1ccb7"/>
  </g>
</svg>
