<svg xmlns="http://www.w3.org/2000/svg" width="72.653" height="56.762" viewBox="0 0 72.653 56.762">
  <g id="Group_661" data-name="Group 661" transform="translate(-152.501 -250.603)">
    <g id="Layer_1" data-name="Layer 1" transform="translate(159 251.106)">
      <path id="Path_130" data-name="Path 130" d="M1465.037,158.424s5.692-8.338,14.351-8.773c10.845-.558,18.174,7.166,18.722,15.9.537,8.605-7.8,17.253-13.02,22.227-11.192,10.679-16.168,13.888-19.95,17.424-3.794-3.523-8.781-6.692-20.023-17.326-5.24-4.947-13.617-13.563-13.115-22.185.51-8.724,7.8-16.463,18.644-15.975C1459.309,150.116,1465.037,158.424,1465.037,158.424Z" transform="translate(-1431.98 -149.623)" fill="#fecac4"/>
    </g>
    <g id="Layer_1-2" data-name="Layer 1" transform="translate(153 251.106)">
      <path id="Path_130-2" data-name="Path 130" d="M1465.037,158.424s5.692-8.338,14.351-8.773c10.845-.558,18.174,7.166,18.722,15.9.537,8.605-7.8,17.253-13.02,22.227-11.192,10.679-16.168,13.888-19.95,17.424-3.794-3.523-8.781-6.692-20.023-17.326-5.24-4.947-13.617-13.563-13.115-22.185.51-8.724,7.8-16.463,18.644-15.975C1459.309,150.116,1465.037,158.424,1465.037,158.424Z" transform="translate(-1431.98 -149.623)" fill="none" stroke="#50625d" stroke-width="1"/>
    </g>
  </g>
</svg>
